# xmcd
#
# Track frame offsets: 
#        150
#        33864
#        64779
#        77976
#        100312
#        117202
#        144723
#        161355
#        175913
#        202878
#        217142
#
# Disc length: 3163 seconds
#
# Revision: 0
# Processed by: cddbd v1.5.1PL0 Copyright (c) Steve Scherf et al.
# Submitted via: ExactAudioCopy v0.95b2
#
DISCID=980c590b
DTITLE=Steve Earle and The Dukes - Live at the East Coast Blues and Ro
DTITLE=ots Festival
DYEAR=1988
DGENRE=Blues
TTITLE0=Copperhead Road
TTITLE1=Telephone Road
TTITLE2=More Than I Can Do
TTITLE3=Ft. Worth Blues
TTITLE4=I Feel Alright
TTITLE5=Billy Austin
TTITLE6=Devil's Right Hand
TTITLE7=NYC
TTITLE8=Unrepentant
TTITLE9=Guitar Town
TTITLE10=Somewhere Out There
EXTD=
EXTT0=
EXTT1=
EXTT2=
EXTT3=
EXTT4=
EXTT5=
EXTT6=
EXTT7=
EXTT8=
EXTT9=
EXTT10=
PLAYORDER=
